# 3ds Max Wavefront OBJ Exporter v0.97b - (c)2007 guruware
# File Created: 11.05.2017 17:10:08

mtllib Moon_1226.mtl

#
# object GeoSphere004
#

v  -1.9588 46.3596 40.9581
v  5.1805 43.2396 37.8382
v  0.2473 48.0408 33.0370
v  -7.7347 46.2069 34.8709
v  -7.7347 40.2723 40.8054
v  0.2473 38.4384 42.6393
v  3.8170 35.2240 35.7572
v  3.8170 41.1586 29.8226
v  -4.1650 42.9925 27.9887
v  -9.0982 38.1913 32.7899
v  -4.1650 33.3902 37.5911
v  -1.9588 35.0713 29.6699
v  1.5956 64.3541 36.8904
v  3.5896 63.4826 36.0190
v  2.2118 64.8103 34.6913
v  -0.0176 64.3032 35.1985
v  -0.0176 62.6621 36.8396
v  2.2118 62.1549 37.3467
v  3.2088 61.2521 35.4296
v  3.2088 62.8932 33.7885
v  0.9794 63.4003 33.2813
v  -0.3985 62.0726 34.6090
v  0.9794 60.7449 35.9367
v  1.5956 61.2012 33.7376
v  18.0537 66.3135 13.6304
v  25.1930 66.3135 9.2181
v  20.2599 73.1034 9.2181
v  12.2779 70.5099 9.2181
v  12.2779 62.1171 9.2181
v  20.2599 59.5236 9.2181
v  23.8295 62.1171 2.0787
v  23.8295 70.5099 2.0787
v  15.8475 73.1034 2.0787
v  10.9144 66.3135 2.0787
v  15.8475 59.5236 2.0787
v  18.0537 66.3135 -2.3336
v  -33.4579 40.7155 13.6304
v  -26.3186 40.7155 9.2181
v  -31.2517 47.5054 9.2181
v  -39.2337 44.9119 9.2181
v  -39.2337 36.5191 9.2181
v  -31.2517 33.9256 9.2181
v  -27.6821 36.5191 2.0787
v  -27.6821 44.9119 2.0787
v  -35.6641 47.5054 2.0787
v  -40.5972 40.7155 2.0787
v  -35.6641 33.9256 2.0787
v  -33.4579 40.7155 -2.3336
v  15.1427 23.0700 13.6304
v  22.2821 23.0700 9.2181
v  17.3489 29.8599 9.2181
v  9.3669 27.2664 9.2181
v  9.3669 18.8736 9.2180
v  17.3489 16.2801 9.2181
v  20.9186 18.8736 2.0787
v  20.9186 27.2664 2.0787
v  12.9366 29.8599 2.0787
v  8.0034 23.0700 2.0787
v  12.9366 16.2801 2.0787
v  15.1427 23.0700 -2.3336
v  -4.4195 45.7726 41.0532
v  14.1939 45.7726 35.7655
v  1.3323 63.4750 35.7655
v  27.2475 45.7726 21.4819
v  19.9457 63.4750 24.2618
v  5.3661 75.8898 21.4819
v  -19.4781 56.7133 35.7655
v  -13.7262 74.4157 24.2618
v  -30.0387 64.3860 21.4819
v  -19.4781 34.8319 35.7655
v  -34.5367 45.7726 24.2618
v  -30.0387 27.1592 21.4819
v  1.3323 28.0702 35.7655
v  -13.7262 17.1295 24.2618
v  5.3661 15.6555 21.4819
v  19.9457 28.0702 24.2618
v  29.2524 34.8320 5.6484
v  29.2524 56.7133 5.6484
v  21.1996 27.1592 -10.1851
v  25.6976 45.7726 -12.9650
v  21.1996 64.3860 -10.1851
v  16.3909 74.4157 5.6484
v  -4.4195 81.1774 5.6484
v  4.8872 74.4157 -12.9650
v  -14.2052 75.8898 -10.1851
v  -25.2300 74.4157 5.6484
v  -38.0915 56.7133 5.6484
v  -28.7848 63.4750 -12.9650
v  -36.0866 45.7726 -10.1851
v  -38.0915 34.8319 5.6484
v  -25.2300 17.1295 5.6484
v  -28.7848 28.0702 -12.9650
v  -14.2052 15.6555 -10.1851
v  -4.4195 10.3678 5.6484
v  16.3909 17.1296 5.6484
v  4.8872 17.1296 -12.9650
v  -4.4195 45.7726 -29.7564
v  -10.1714 63.4750 -24.4687
v  10.6390 56.7133 -24.4687
v  -23.0329 45.7726 -24.4687
v  -10.1714 28.0702 -24.4687
v  10.6390 34.8320 -24.4687
# 102 vertices

vn 0.4911 0.8142 0.3096
vn -0.1876 0.9702 0.1537
vn -0.6071 0.5619 0.5619
vn -0.1876 0.1537 0.9702
vn 0.4911 0.3096 0.8142
vn 0.9822 -0.1326 -0.1326
vn 0.3035 0.5279 -0.7932
vn -0.7947 0.2756 -0.5409
vn -0.7947 -0.5409 0.2756
vn 0.3035 -0.7932 0.5279
vn 0.7947 0.5409 -0.2756
vn -0.3035 0.7932 -0.5279
vn -0.9822 0.1326 0.1326
vn -0.3035 -0.5279 0.7932
vn 0.7947 -0.2756 0.5409
vn 0.1876 -0.1537 -0.9702
vn -0.4911 -0.3096 -0.8142
vn -0.4911 -0.8142 -0.3096
vn 0.1876 -0.9702 -0.1537
vn 0.6071 -0.5619 -0.5619
vn 0.2680 0.8049 0.5295
vn 0.7240 0.6056 0.3302
vn 0.4089 0.9123 0.0235
vn -0.1024 0.8900 0.4444
vn 0.0385 0.9974 -0.0616
vn -0.4713 0.8802 0.0556
vn -0.3313 0.6672 0.6672
vn -0.7002 0.6574 0.2784
vn -0.7002 0.2784 0.6574
vn -0.1024 0.4444 0.8900
vn -0.4713 0.0556 0.8802
vn 0.0385 -0.0616 0.9974
vn 0.2680 0.5295 0.8049
vn 0.4089 0.0235 0.9123
vn 0.7240 0.3302 0.6056
vn 0.9921 0.0888 0.0888
vn 0.9050 -0.4231 -0.0441
vn 0.9050 -0.0441 -0.4231
vn 0.3066 0.7560 -0.5783
vn 0.5346 0.3164 -0.7837
vn 0.0247 0.4336 -0.9008
vn -0.8026 0.5012 -0.3235
vn -0.5746 0.2959 -0.7631
vn -0.8897 -0.0108 -0.4564
vn -0.8026 -0.3235 0.5012
vn -0.8897 -0.4564 -0.0108
vn -0.5746 -0.7631 0.2959
vn 0.3066 -0.5783 0.7560
vn 0.0247 -0.9008 0.4336
vn 0.5346 -0.7837 0.3164
vn 0.8026 0.3235 -0.5012
vn 0.5746 0.7631 -0.2959
vn 0.8897 0.4564 0.0108
vn -0.3066 0.5783 -0.7560
vn -0.5346 0.7837 -0.3164
vn -0.0247 0.9008 -0.4336
vn -0.9921 -0.0888 -0.0888
vn -0.9050 0.0441 0.4231
vn -0.9050 0.4231 0.0441
vn -0.3066 -0.7560 0.5783
vn -0.0247 -0.4336 0.9008
vn -0.5346 -0.3164 0.7837
vn 0.8026 -0.5012 0.3235
vn 0.8897 0.0108 0.4564
vn 0.5746 -0.2959 0.7631
vn 0.1024 -0.4444 -0.8900
vn -0.0385 0.0616 -0.9974
vn 0.4713 -0.0556 -0.8802
vn -0.2680 -0.5295 -0.8049
vn -0.7240 -0.3302 -0.6056
vn -0.4089 -0.0235 -0.9123
vn -0.2680 -0.8049 -0.5295
vn -0.4089 -0.9123 -0.0235
vn -0.7240 -0.6056 -0.3302
vn 0.1024 -0.8900 -0.4444
vn 0.4713 -0.8802 -0.0556
vn -0.0385 -0.9974 0.0616
vn 0.3313 -0.6672 -0.6672
vn 0.7002 -0.2784 -0.6574
vn 0.7002 -0.6574 -0.2784
# 80 vertex normals

vt 0.6000 1.0000 0.0000
vt 0.5000 0.6476 0.0000
vt 0.7000 0.6476 0.0000
vt 0.8000 1.0000 0.0000
vt 0.9000 0.6476 0.0000
vt 0.0000 1.0000 0.0000
vt -0.1000 0.6476 0.0000
vt 0.1000 0.6476 0.0000
vt 0.2000 1.0000 0.0000
vt 0.3000 0.6476 0.0000
vt 0.4000 1.0000 0.0000
vt 0.4000 0.3524 0.0000
vt 0.6000 0.3524 0.0000
vt 0.8000 0.3524 0.0000
vt -0.2000 0.3524 0.0000
vt 0.0000 0.3524 0.0000
vt 0.2000 0.3524 0.0000
vt 0.7000 0.0000 0.0000
vt -0.1000 0.0000 0.0000
vt 0.1000 0.0000 0.0000
vt 0.3000 0.0000 0.0000
vt 0.5000 0.0000 0.0000
vt 0.5000 0.8238 0.0000
vt 0.7000 0.8238 0.0000
vt 0.6000 0.6762 0.0000
vt 0.9000 0.8238 0.0000
vt 0.8000 0.6762 0.0000
vt -0.1000 0.8238 0.0000
vt 0.1000 0.8238 0.0000
vt 0.0000 0.6762 0.0000
vt 0.3000 0.8238 0.0000
vt 0.2000 0.6762 0.0000
vt 0.4000 0.6762 0.0000
vt 0.4500 0.5000 0.0000
vt 0.5500 0.5000 0.0000
vt 0.5000 0.3238 0.0000
vt 0.6500 0.5000 0.0000
vt 0.7500 0.5000 0.0000
vt 0.7000 0.3238 0.0000
vt 0.8500 0.5000 0.0000
vt 0.9500 0.5000 0.0000
vt 0.9000 0.3238 0.0000
vt -0.0500 0.5000 0.0000
vt -0.1000 0.3238 0.0000
vt 0.0500 0.5000 0.0000
vt 0.1500 0.5000 0.0000
vt 0.1000 0.3238 0.0000
vt 0.2500 0.5000 0.0000
vt 0.3500 0.5000 0.0000
vt 0.3000 0.3238 0.0000
vt 0.8000 0.1762 0.0000
vt 0.6000 0.1762 0.0000
vt 0.0000 0.1762 0.0000
vt -0.2000 0.1762 0.0000
vt 0.2000 0.1762 0.0000
vt 0.4000 0.1762 0.0000
# 56 texture coords

g GeoSphere004
usemtl 02___Default
s off
f 1/1/1 2/2/1 3/3/1 
f 1/4/2 3/3/2 4/5/2 
f 1/6/3 4/7/3 5/8/3 
f 1/9/4 5/8/4 6/10/4 
f 1/11/5 6/10/5 2/2/5 
f 2/2/6 7/12/6 8/13/6 
f 3/3/7 8/13/7 9/14/7 
f 4/7/8 9/15/8 10/16/8 
f 5/8/9 10/16/9 11/17/9 
f 6/10/10 11/17/10 7/12/10 
f 8/13/11 3/3/11 2/2/11 
f 9/14/12 4/5/12 3/3/12 
f 10/16/13 5/8/13 4/7/13 
f 11/17/14 6/10/14 5/8/14 
f 7/12/15 2/2/15 6/10/15 
f 12/18/16 9/14/16 8/13/16 
f 12/19/17 10/16/17 9/15/17 
f 12/20/18 11/17/18 10/16/18 
f 12/21/19 7/12/19 11/17/19 
f 12/22/20 8/13/20 7/12/20 
f 13/1/1 14/2/1 15/3/1 
f 13/4/2 15/3/2 16/5/2 
f 13/6/3 16/7/3 17/8/3 
f 13/9/4 17/8/4 18/10/4 
f 13/11/5 18/10/5 14/2/5 
f 14/2/6 19/12/6 20/13/6 
f 15/3/7 20/13/7 21/14/7 
f 16/7/8 21/15/8 22/16/8 
f 17/8/9 22/16/9 23/17/9 
f 18/10/10 23/17/10 19/12/10 
f 20/13/11 15/3/11 14/2/11 
f 21/14/12 16/5/12 15/3/12 
f 22/16/13 17/8/13 16/7/13 
f 23/17/14 18/10/14 17/8/14 
f 19/12/15 14/2/15 18/10/15 
f 24/18/16 21/14/16 20/13/16 
f 24/19/17 22/16/17 21/15/17 
f 24/20/18 23/17/18 22/16/18 
f 24/21/19 19/12/19 23/17/19 
f 24/22/20 20/13/20 19/12/20 
f 25/1/1 26/2/1 27/3/1 
f 25/4/2 27/3/2 28/5/2 
f 25/6/3 28/7/3 29/8/3 
f 25/9/4 29/8/4 30/10/4 
f 25/11/5 30/10/5 26/2/5 
f 26/2/6 31/12/6 32/13/6 
f 27/3/7 32/13/7 33/14/7 
f 28/7/8 33/15/8 34/16/8 
f 29/8/9 34/16/9 35/17/9 
f 30/10/10 35/17/10 31/12/10 
f 32/13/11 27/3/11 26/2/11 
f 33/14/12 28/5/12 27/3/12 
f 34/16/13 29/8/13 28/7/13 
f 35/17/14 30/10/14 29/8/14 
f 31/12/15 26/2/15 30/10/15 
f 36/18/16 33/14/16 32/13/16 
f 36/19/17 34/16/17 33/15/17 
f 36/20/18 35/17/18 34/16/18 
f 36/21/19 31/12/19 35/17/19 
f 36/22/20 32/13/20 31/12/20 
f 37/1/1 38/2/1 39/3/1 
f 37/4/2 39/3/2 40/5/2 
f 37/6/3 40/7/3 41/8/3 
f 37/9/4 41/8/4 42/10/4 
f 37/11/5 42/10/5 38/2/5 
f 38/2/6 43/12/6 44/13/6 
f 39/3/7 44/13/7 45/14/7 
f 40/7/8 45/15/8 46/16/8 
f 41/8/9 46/16/9 47/17/9 
f 42/10/10 47/17/10 43/12/10 
f 44/13/11 39/3/11 38/2/11 
f 45/14/12 40/5/12 39/3/12 
f 46/16/13 41/8/13 40/7/13 
f 47/17/14 42/10/14 41/8/14 
f 43/12/15 38/2/15 42/10/15 
f 48/18/16 45/14/16 44/13/16 
f 48/19/17 46/16/17 45/15/17 
f 48/20/18 47/17/18 46/16/18 
f 48/21/19 43/12/19 47/17/19 
f 48/22/20 44/13/20 43/12/20 
f 49/1/1 50/2/1 51/3/1 
f 49/4/2 51/3/2 52/5/2 
f 49/6/3 52/7/3 53/8/3 
f 49/9/4 53/8/4 54/10/4 
f 49/11/5 54/10/5 50/2/5 
f 50/2/6 55/12/6 56/13/6 
f 51/3/7 56/13/7 57/14/7 
f 52/7/8 57/15/8 58/16/8 
f 53/8/9 58/16/9 59/17/9 
f 54/10/10 59/17/10 55/12/10 
f 56/13/11 51/3/11 50/2/11 
f 57/14/12 52/5/12 51/3/12 
f 58/16/13 53/8/13 52/7/13 
f 59/17/14 54/10/14 53/8/14 
f 55/12/15 50/2/15 54/10/15 
f 60/18/16 57/14/16 56/13/16 
f 60/19/17 58/16/17 57/15/17 
f 60/20/18 59/17/18 58/16/18 
f 60/21/19 55/12/19 59/17/19 
f 60/22/20 56/13/20 55/12/20 
usemtl 01___Default
f 61/1/21 62/23/21 63/24/21 
f 62/23/22 64/2/22 65/25/22 
f 62/23/1 65/25/1 63/24/1 
f 63/24/23 65/25/23 66/3/23 
f 61/4/24 63/24/24 67/26/24 
f 63/24/25 66/3/25 68/27/25 
f 63/24/2 68/27/2 67/26/2 
f 67/26/26 68/27/26 69/5/26 
f 61/6/27 67/28/27 70/29/27 
f 67/28/28 69/7/28 71/30/28 
f 67/28/3 71/30/3 70/29/3 
f 70/29/29 71/30/29 72/8/29 
f 61/9/30 70/29/30 73/31/30 
f 70/29/31 72/8/31 74/32/31 
f 70/29/4 74/32/4 73/31/4 
f 73/31/32 74/32/32 75/10/32 
f 61/11/33 73/31/33 62/23/33 
f 73/31/34 75/10/34 76/33/34 
f 73/31/5 76/33/5 62/23/5 
f 62/23/35 76/33/35 64/2/35 
f 64/2/36 77/34/36 78/35/36 
f 77/34/37 79/12/37 80/36/37 
f 77/34/6 80/36/6 78/35/6 
f 78/35/38 80/36/38 81/13/38 
f 66/3/39 82/37/39 83/38/39 
f 82/37/40 81/13/40 84/39/40 
f 82/37/7 84/39/7 83/38/7 
f 83/38/41 84/39/41 85/14/41 
f 69/5/42 86/40/42 87/41/42 
f 86/40/43 85/14/43 88/42/43 
f 86/40/8 88/42/8 87/41/8 
f 87/43/44 88/44/44 89/16/44 
f 72/8/45 90/45/45 91/46/45 
f 90/45/46 89/16/46 92/47/46 
f 90/45/9 92/47/9 91/46/9 
f 91/46/47 92/47/47 93/17/47 
f 75/10/48 94/48/48 95/49/48 
f 94/48/49 93/17/49 96/50/49 
f 94/48/10 96/50/10 95/49/10 
f 95/49/50 96/50/50 79/12/50 
f 81/13/51 82/37/51 78/35/51 
f 82/37/52 66/3/52 65/25/52 
f 82/37/11 65/25/11 78/35/11 
f 78/35/53 65/25/53 64/2/53 
f 85/14/54 86/40/54 83/38/54 
f 86/40/55 69/5/55 68/27/55 
f 86/40/12 68/27/12 83/38/12 
f 83/38/56 68/27/56 66/3/56 
f 89/16/57 90/45/57 87/43/57 
f 90/45/58 72/8/58 71/30/58 
f 90/45/13 71/30/13 87/43/13 
f 87/43/59 71/30/59 69/7/59 
f 93/17/60 94/48/60 91/46/60 
f 94/48/61 75/10/61 74/32/61 
f 94/48/14 74/32/14 91/46/14 
f 91/46/62 74/32/62 72/8/62 
f 79/12/63 77/34/63 95/49/63 
f 77/34/64 64/2/64 76/33/64 
f 77/34/15 76/33/15 95/49/15 
f 95/49/65 76/33/65 75/10/65 
f 97/18/66 98/51/66 99/52/66 
f 98/51/67 85/14/67 84/39/67 
f 98/51/16 84/39/16 99/52/16 
f 99/52/68 84/39/68 81/13/68 
f 97/19/69 100/53/69 98/54/69 
f 100/53/70 89/16/70 88/44/70 
f 100/53/17 88/44/17 98/54/17 
f 98/51/71 88/42/71 85/14/71 
f 97/20/72 101/55/72 100/53/72 
f 101/55/73 93/17/73 92/47/73 
f 101/55/18 92/47/18 100/53/18 
f 100/53/74 92/47/74 89/16/74 
f 97/21/75 102/56/75 101/55/75 
f 102/56/76 79/12/76 96/50/76 
f 102/56/19 96/50/19 101/55/19 
f 101/55/77 96/50/77 93/17/77 
f 97/22/78 99/52/78 102/56/78 
f 99/52/79 81/13/79 80/36/79 
f 99/52/20 80/36/20 102/56/20 
f 102/56/80 80/36/80 79/12/80 
# 0 polygons - 180 triangles

